<svg xmlns="http://www.w3.org/2000/svg" style="display:none">
  
  <symbol id="vetted-score" viewBox="0 0 20 20" fill="none">
    <circle cx="10" cy="10" r="7" stroke="currentColor" stroke-width="1.5"></circle>
    <line x1="10" y1="10" x2="10" y2="5" stroke="currentColor" stroke-width="1.5" stroke-linecap="round"></line>
    <line x1="10" y1="10" x2="13" y2="12" stroke="currentColor" stroke-width="1.5" stroke-linecap="round"></line>
  </symbol>
  <symbol id="vetted-insights" viewBox="0 0 20 20" fill="none">
    <rect x="2" y="3" width="16" height="14" rx="2" fill="currentColor"></rect>
    <line x1="5" y1="8" x2="15" y2="8" stroke="#FAFAF8" stroke-width="1.5" stroke-linecap="round"></line>
    <line x1="5" y1="12" x2="12" y2="12" stroke="#FAFAF8" stroke-width="1.5" stroke-linecap="round"></line>
  </symbol>
  <symbol id="vetted-filters" viewBox="0 0 20 20" fill="none">
    <line x1="3" y1="6" x2="17" y2="6" stroke="currentColor" stroke-width="1.5" stroke-linecap="round"></line>
    <line x1="5" y1="10" x2="15" y2="10" stroke="currentColor" stroke-width="1.5" stroke-linecap="round"></line>
    <line x1="7" y1="14" x2="13" y2="14" stroke="currentColor" stroke-width="1.5" stroke-linecap="round"></line>
  </symbol>
  <symbol id="vetted-coach" viewBox="0 0 20 20" fill="none">
    <path d="M3 4C3 3.45 3.45 3 4 3H16C16.55 3 17 3.45 17 4V12C17 12.55 16.55 13 16 13H8.5L4.5 17V13H4C3.45 13 3 12.55 3 12V4Z" stroke="currentColor" stroke-width="1.5" stroke-linejoin="round"></path>
  </symbol>
  <symbol id="vetted-compare" viewBox="0 0 20 20" fill="none">
    <rect x="2" y="4" width="7" height="12" rx="1.5" stroke="currentColor" stroke-width="1.5"></rect>
    <rect x="11" y="4" width="7" height="12" rx="1.5" stroke="currentColor" stroke-width="1.5"></rect>
  </symbol>
</svg>